<svg xmlns="http://www.w3.org/2000/svg" viewBox="0 0 88.12 25"><defs><style>.cls-1{fill:#231f20;}.cls-2{fill:#004a8f;}.cls-3{fill:#fff;}.cls-4{fill:#ed1c24;}</style></defs><title>Asset 1</title><g id="Layer_2" data-name="Layer 2"><g id="Layer_1-2" data-name="Layer 1"><path class="cls-1" d="M4.68,22.78h0l1.16-4.62h.52L5,23.49H4.42L3.19,18.78h0L1.93,23.49H1.38L0,18.16H.5l1.15,4.62h0l1.25-4.62h.55Z"/><path class="cls-1" d="M7.22,21.31c.1-.73.51-1.36,1.3-1.36a1.22,1.22,0,0,1,1.21,1.36Zm3,.37c0-1.38-.63-2.13-1.68-2.13a1.85,1.85,0,0,0-1.77,2c0,1.13.54,2,1.77,2a1.59,1.59,0,0,0,1.65-1.28H9.68a1.13,1.13,0,0,1-1.16.88,1.34,1.34,0,0,1-1.3-1.51Z"/><path class="cls-1" d="M15.88,19.65h.44v3.84h-.44V23a1.56,1.56,0,0,1-1.24.63c-1,0-1.36-.61-1.36-1.41V19.65h.44v2.52c0,.66.29,1,1,1s1.18-.61,1.18-1.45Z"/><path class="cls-1" d="M17.91,21.42a1.93,1.93,0,0,1,.1-.72A1.12,1.12,0,0,1,19.07,20c.71,0,1,.35,1,1v2.5h.45V21a1.48,1.48,0,0,0-.19-.88,1.36,1.36,0,0,0-1.18-.55,1.6,1.6,0,0,0-1.23.64v-.54h-.45v3.84h.45Z"/><path class="cls-1" d="M24.62,21.56c0,.92-.46,1.63-1.3,1.63S22,22.65,22,21.69,22.41,20,23.32,20,24.62,20.69,24.62,21.56Zm0-1.29a1.6,1.6,0,0,0-1.37-.72c-1.17,0-1.71.95-1.71,2s.49,2,1.73,2a1.53,1.53,0,0,0,1.33-.78h0v.68h.44V18.16h-.44Z"/><path class="cls-1" d="M26.53,21.31A1.34,1.34,0,0,1,27.81,20,1.22,1.22,0,0,1,29,21.31Zm3,.37c0-1.38-.64-2.13-1.7-2.13a1.84,1.84,0,0,0-1.76,2c0,1.13.54,2,1.76,2a1.6,1.6,0,0,0,1.66-1.28H29a1.14,1.14,0,0,1-1.17.88,1.32,1.32,0,0,1-1.28-1.51Z"/><path class="cls-1" d="M30.91,23.49h-.45V19.65h.45v.72h0a1.17,1.17,0,0,1,1.26-.82V20c-1,0-1.27.72-1.27,1.58Z"/><path class="cls-1" d="M33.24,22.29a1,1,0,0,0,1.15.9c.65,0,1-.34,1-.71,0-1.11-2.46-.32-2.46-1.84,0-.63.49-1.09,1.35-1.09a1.29,1.29,0,0,1,1.48,1.2h-.45a.91.91,0,0,0-1-.8c-.56,0-.87.27-.87.66,0,1,2.46.39,2.46,1.87,0,.73-.66,1.11-1.56,1.11a1.35,1.35,0,0,1-1.46-1.3Z"/><path class="cls-1" d="M38.11,23.5a1.89,1.89,0,0,1-.52.09c-.43,0-.68-.19-.68-.76V20h-.54v-.38h.54V18.59h.45v1.06h.72V20h-.72v2.62c0,.38,0,.54.38.54a1.57,1.57,0,0,0,.37-.05Z"/><path class="cls-1" d="M41.4,21.47a3.55,3.55,0,0,1-1.15.22c-.67,0-1.08.3-1.08.81s.41.69.83.69c.7,0,1.4-.34,1.4-1.11Zm-.75-.22a2.29,2.29,0,0,0,.59-.12c.15-.07.16-.27.16-.4,0-.45-.27-.78-1-.78s-1,.2-1.11.87h-.45c.06-.91.74-1.27,1.58-1.27s1.38.3,1.38,1.19v2.09c0,.35.09.43.47.3v.34a1,1,0,0,1-.35.08l-.2,0c-.3-.05-.35-.31-.35-.57a1.9,1.9,0,0,1-1.43.63,1.13,1.13,0,0,1-1.28-1.1c0-.65.44-1,1.34-1.15Z"/><path class="cls-1" d="M43.52,23.49h-.44V19.65h.44v.54a1.64,1.64,0,0,1,1.24-.64,1.33,1.33,0,0,1,1.17.55,1.41,1.41,0,0,1,.19.88v2.51h-.44V21c0-.69-.28-1-1-1a1.13,1.13,0,0,0-1.07.75,1.93,1.93,0,0,0-.1.72Z"/><path class="cls-1" d="M50.23,21.56c0,.92-.46,1.63-1.3,1.63s-1.3-.54-1.31-1.5S48,20,48.93,20,50.23,20.69,50.23,21.56Zm0-1.29a1.59,1.59,0,0,0-1.37-.72c-1.17,0-1.71.95-1.71,2s.5,2,1.73,2a1.54,1.54,0,0,0,1.34-.78h0v.68h.44V18.16h-.44Z"/><path class="cls-1" d="M54,24.53a1.5,1.5,0,0,0,.37,0c.5,0,.58-.73.75-1.06L53.6,19.65h.49l1.23,3.29,1.24-3.29H57l-1.43,3.79C55.24,24.4,55,25,54.39,25A1.79,1.79,0,0,1,54,25Z"/><path class="cls-1" d="M60.61,21.57c0,.82-.38,1.62-1.31,1.62S58,22.52,58,21.57,58.37,20,59.3,20,60.59,20.67,60.61,21.57Zm-1.31,2a1.8,1.8,0,0,0,1.78-2,1.79,1.79,0,1,0-3.56,0A1.79,1.79,0,0,0,59.3,23.59Z"/><path class="cls-1" d="M64.56,19.65H65v3.84h-.45V23a1.54,1.54,0,0,1-1.23.63A1.24,1.24,0,0,1,62,22.18V19.65h.45v2.52c0,.66.29,1,1,1s1.17-.61,1.17-1.45Z"/><path class="cls-1" d="M66.62,23.49h-.44V19.65h.44v.72h0a1.15,1.15,0,0,1,1.25-.82V20c-1,0-1.27.72-1.27,1.58Z"/><path class="cls-1" d="M74.07,22.89l1-3.24h.46l-1.25,3.84h-.47L73,20.27h0l-.85,3.22h-.53L70.4,19.65h.45l1,3.28.89-3.28h.49Z"/><path class="cls-1" d="M79.08,21.57c0,.82-.38,1.62-1.31,1.62s-1.3-.67-1.3-1.62S76.84,20,77.77,20,79.06,20.67,79.08,21.57Zm-1.31,2a1.8,1.8,0,0,0,1.78-2,1.79,1.79,0,1,0-3.55,0A1.78,1.78,0,0,0,77.77,23.59Z"/><path class="cls-1" d="M80.9,21.61c0-.86.27-1.6,1.27-1.58v-.48a1.15,1.15,0,0,0-1.25.82h0v-.72h-.44v3.84h.44Z"/><path class="cls-1" d="M83,23.49V18.16h.45v5.33Z"/><path class="cls-1" d="M87.65,21.56c0,.92-.46,1.63-1.29,1.63s-1.3-.54-1.31-1.5S85.44,20,86.36,20,87.65,20.69,87.65,21.56Zm0-1.29a1.58,1.58,0,0,0-1.36-.72c-1.18,0-1.71.95-1.71,2s.49,2,1.73,2a1.54,1.54,0,0,0,1.33-.78h0v.68h.45V18.16h-.45Z"/><rect class="cls-2" x="0.03" width="88.1" height="14.68"/><rect class="cls-2" x="14.71" width="73.41" height="14.68"/><path class="cls-3" d="M19.38,10.81V3.87h2.28V6.21h2.15V3.87H26.1v6.94H23.81V8.12H21.66v2.69Z"/><path class="cls-3" d="M29.71,5.59h.59a2.4,2.4,0,0,1,.94.14.83.83,0,0,1,.37.3,1.47,1.47,0,0,1,.23.55,2.71,2.71,0,0,1,.08.71,2.59,2.59,0,0,1-.17,1,1.23,1.23,0,0,1-.5.59,2,2,0,0,1-1,.18h-.58Zm.88,5.22a5.18,5.18,0,0,0,1.35-.14,2.9,2.9,0,0,0,.9-.37,2.81,2.81,0,0,0,.64-.61,3.66,3.66,0,0,0,.49-1,4.57,4.57,0,0,0,.2-1.39,4,4,0,0,0-.44-1.95A2.61,2.61,0,0,0,32.5,4.2a4.71,4.71,0,0,0-1.85-.33H27.48v6.94Z"/><path class="cls-3" d="M35.21,10.81V3.87h5.42V5.58H37.47V6.69H40V8.36H37.47v2.45Z"/><path class="cls-3" d="M48.29,6.52H46.13a1.29,1.29,0,0,0-.38-.81A1.13,1.13,0,0,0,45,5.42a1.21,1.21,0,0,0-1,.47,2.37,2.37,0,0,0-.38,1.52,2.84,2.84,0,0,0,.16,1.1,1.25,1.25,0,0,0,.45.57,1.39,1.39,0,0,0,.73.18A1.16,1.16,0,0,0,45.77,9a1.3,1.3,0,0,0,.37-.86h2.2a4.26,4.26,0,0,1-.26,1.09,3.15,3.15,0,0,1-.63.88,2.89,2.89,0,0,1-1.05.68A3.77,3.77,0,0,1,45,11a4.62,4.62,0,0,1-1.47-.23,3.23,3.23,0,0,1-1.13-.67,3.15,3.15,0,0,1-.72-1,4,4,0,0,1-.37-1.74,4.21,4.21,0,0,1,.27-1.51,3.3,3.3,0,0,1,.72-1.17,3.23,3.23,0,0,1,1-.71,4,4,0,0,1,1.58-.3,4.34,4.34,0,0,1,1.41.22,2.64,2.64,0,0,1,1.09.66,2.91,2.91,0,0,1,.66,1A3.57,3.57,0,0,1,48.29,6.52Z"/><path class="cls-3" d="M55.61,5.43a2.18,2.18,0,0,1,.63.05.55.55,0,0,1,.32.21.52.52,0,0,1,.13.36.55.55,0,0,1-.21.44,1.25,1.25,0,0,1-.74.16h-.86V5.43Zm.57,5.38a6.19,6.19,0,0,0,1.15-.07A3.19,3.19,0,0,0,58,10.5a2.12,2.12,0,0,0,.52-.35,1.75,1.75,0,0,0,.4-.61,2.07,2.07,0,0,0,.15-.8,1.7,1.7,0,0,0-.32-1,1.54,1.54,0,0,0-.85-.57,1.68,1.68,0,0,0,.91-1.47A1.55,1.55,0,0,0,58,4.24a3.68,3.68,0,0,0-1.89-.37H52.67v6.94Zm-.37-2.9a1.65,1.65,0,0,1,.9.16.62.62,0,0,1,.21.48.58.58,0,0,1-.23.49,1.4,1.4,0,0,1-.88.18h-.93V7.91Z"/><path class="cls-3" d="M64.08,8.48H62.63L63.35,6ZM62,10.81l.26-.91h2.28l.26.91H67L64.53,3.87H62.21l-2.49,6.94Z"/><path class="cls-3" d="M68,10.81V3.87h2.13l2.4,3.72V3.87H74.7v6.94H72.53L70.18,7.19v3.62Z"/><path class="cls-3" d="M76.23,10.81V3.87h2.21V6.16l2.07-2.29h2.68L80.64,6.48l2.81,4.33H80.72L79.05,8.05l-.61.6v2.16Z"/><rect class="cls-4" x="0.03" width="14.68" height="14.68"/><rect class="cls-3" x="2.6" y="2.57" width="9.54" height="9.54"/><rect class="cls-3" x="6.63" width="1.47" height="14.68"/><rect class="cls-3" x="0.03" y="6.61" width="14.68" height="1.47"/><rect class="cls-2" x="5.17" y="5.14" width="4.4" height="4.41"/></g></g></svg>