<svg xmlns="http://www.w3.org/2000/svg" viewBox="0 0 76.37 25"><defs><style>.cls-1{fill:#ec1c24;}.cls-1,.cls-2,.cls-3{fill-rule:evenodd;}.cls-2{fill:#004a8e;}.cls-3,.cls-4{fill:#231f20;}</style></defs><title>Asset 1</title><g id="Layer_2" data-name="Layer 2"><g id="Layer_1-2" data-name="Layer 1"><path class="cls-1" d="M1.08,3.47c0,.71.53.95,1.11.95.38,0,1-.09,1-.65s-.76-.6-1.49-.8S.18,2.46.18,1.51,1.11.05,2,0h.1c1,.05,2,.5,2,1.61H3C3,1,2.55.86,2,.86c-.36,0-.76.15-.76.59s.23.41,1.49.76c.38.1,1.49.3,1.49,1.46,0,.91-.71,1.61-2.07,1.61C1,5.28,0,4.73,0,3.47Z"/><path class="cls-1" d="M6.28.15H7.42l1.89,5H8.15L7.77,4H5.9L5.5,5.17H4.36l1.92-5Zm-.1,3.07H7.49L6.86,1.36h0Z"/><polygon class="cls-1" points="9.74 0.15 10.85 0.15 10.85 4.22 13.29 4.22 13.29 5.17 9.74 5.17 9.74 0.15"/><path class="cls-1" d="M15.31.15h1.14l1.87,5H17.18L16.8,4H14.91l-.4,1.15H13.39l1.92-5Zm-.12,3.07H16.5l-.63-1.86h0Z"/><path class="cls-1" d="M18.77.15h2.7A1.37,1.37,0,0,1,23,1.51a1.22,1.22,0,0,1-.81,1.26v0c.56.1.71.65.73,1.15a3,3,0,0,0,.23,1.2H22A4.57,4.57,0,0,1,21.82,4c-.07-.55-.28-.75-.83-.75H19.88V5.17H18.77v-5Zm1.11,2.27h1.21c.48,0,.76-.21.76-.71s-.28-.7-.76-.7H19.88Z"/><polygon class="cls-1" points="24.9 3.22 23.06 0.15 24.29 0.15 25.48 2.11 26.64 0.15 27.88 0.15 26.01 3.22 26.01 5.17 24.9 5.17 24.9 3.22"/><path class="cls-1" d="M31.64.15h1.13l1.89,5H33.5L33.12,4H31.23l-.38,1.15H29.72l1.92-5Zm-.1,3.07h1.31l-.66-1.86Z"/><path class="cls-1" d="M38.45,1.81A1,1,0,0,0,37.36,1c-1,0-1.39.86-1.39,1.71s.39,1.67,1.39,1.67A1.12,1.12,0,0,0,38.5,3.22h1.08a2.13,2.13,0,0,1-2.22,2.06,2.42,2.42,0,0,1-2.47-2.62A2.47,2.47,0,0,1,37.34,0h0a2,2,0,0,1,2.14,1.81Z"/><path class="cls-1" d="M43.7,1.81A1.09,1.09,0,0,0,42.58,1c-1,0-1.36.86-1.36,1.71s.38,1.67,1.36,1.67a1.11,1.11,0,0,0,1.14-1.11h1.09a2.14,2.14,0,0,1-2.23,2.06,2.42,2.42,0,0,1-2.47-2.62A2.48,2.48,0,0,1,42.56,0h.08a2,2,0,0,1,2.12,1.81Z"/><path class="cls-1" d="M47.78,0h.08A2.48,2.48,0,0,1,50.3,2.66a2.48,2.48,0,1,1-5,0A2.48,2.48,0,0,1,47.78,0Zm0,4.33h0c1,0,1.39-.81,1.39-1.67S48.82,1,47.81,1s-1.36.86-1.36,1.71S46.82,4.33,47.81,4.33Z"/><path class="cls-1" d="M55.33,3.27a1.88,1.88,0,0,1-2.15,2c-1.36,0-2.14-.66-2.14-2V.15h1.08V3.27c0,.55.15,1.06,1.06,1.06s1-.31,1-1.06V.15h1.11Z"/><polygon class="cls-1" points="56.29 0.15 57.37 0.15 59.49 3.52 59.49 0.15 60.52 0.15 60.52 5.17 59.41 5.17 57.32 1.81 57.32 5.17 56.29 5.17 56.29 0.15"/><polygon class="cls-1" points="62.62 1.06 61.1 1.06 61.1 0.15 65.24 0.15 65.24 1.06 63.73 1.06 63.73 5.17 62.62 5.17 62.62 1.06"/><path class="cls-2" d="M0,6.74H6.89a4.55,4.55,0,0,1,4.92,4.57c0,3.22-2.17,4.73-5.25,4.73H4.11v4H0V6.74Zm4.11,6.13H5.7c1.08,0,2.19-.1,2.19-1.41S7,10.16,6,10.16H4.11Z"/><polygon class="cls-2" points="13.17 6.74 24.24 6.74 24.24 10.16 17.31 10.16 17.31 11.82 23.61 11.82 23.61 14.98 17.31 14.98 17.31 16.64 24.45 16.64 24.45 20.06 13.17 20.06 13.17 6.74"/><path class="cls-2" d="M26.36,6.74h7.85c2.34,0,4.36,1.31,4.36,3.82a3.41,3.41,0,0,1-2,3.32,3.61,3.61,0,0,1,1.94,3.32A9.25,9.25,0,0,0,39,20.06H34.87A8.78,8.78,0,0,1,34.54,18c-.13-1.26-.23-2.56-1.87-2.56h-2.2v4.62H26.36V6.74Zm4.11,5.83h2.18c.75,0,1.81-.15,1.81-1.31,0-.85-.48-1.36-2-1.36h-2Z"/><polygon class="cls-2" points="40.37 6.74 44.48 6.74 44.48 11.37 44.5 11.37 48.19 6.74 53.26 6.74 48.41 11.97 54.04 20.06 48.92 20.06 45.61 14.89 44.48 16.14 44.48 20.06 40.37 20.06 40.37 6.74"/><path class="cls-2" d="M58.07,15.59a2.41,2.41,0,0,0,.16.9c.3.81,1.21,1,2,1s1.71-.25,1.71-1.21c0-.7-.58-.9-2.9-1.56-2.12-.6-4.52-1.15-4.52-3.82,0-3.12,2.63-4.42,5.4-4.42s5.45,1.1,5.58,4.32H61.56a1.08,1.08,0,0,0-.48-1.06,2,2,0,0,0-1.21-.3c-.58,0-1.49.15-1.49.86.07,1,2,1.16,3.88,1.71S66,13.38,66,15.79c0,3.47-3.2,4.63-6.18,4.63-1.51,0-5.85-.56-5.88-4.83Z"/><path class="cls-2" d="M66.35,20.46l7.06-7-7.06-7C67,7.34,70.36,12.82,66.35,20.46Z"/><polygon class="cls-1" points="69.3 6.38 68.52 7.14 74.83 13.42 68.52 19.71 69.3 20.46 76.37 13.42 69.3 6.38"/><path class="cls-3" d="M.29,23.7c0,.45.31.59.71.59.23,0,.57-.13.57-.44s-.24-.35-.44-.4l-.49-.11c-.26-.07-.49-.19-.49-.53s.14-.61.75-.61c.43,0,.81.23.81.68H1.5a.53.53,0,0,0-.6-.5c-.28,0-.54.11-.54.43s.15.29.33.33l.53.13c.31.08.56.22.56.57,0,.15-.06.62-.83.62-.52,0-.9-.23-.87-.76Z"/><path class="cls-3" d="M3,22.85h.18v.3h0a.59.59,0,0,1,.57-.35c.48,0,.7.39.7.83s-.22.83-.7.83a.55.55,0,0,1-.55-.34h0V25H3V22.85Zm.75.11h0c-.43,0-.56.32-.56.67s.15.67.56.67.51-.34.51-.67S4.1,23,3.74,23Z"/><path class="cls-3" d="M5.77,23.69c0,.28.15.61.52.61a.48.48,0,0,0,.5-.4H7a.64.64,0,0,1-.69.56c-.5,0-.71-.38-.71-.83a.74.74,0,0,1,.71-.83c.51,0,.71.44.7.89Zm1-.17h0a.53.53,0,0,0-.5-.56.57.57,0,0,0-.52.56Z"/><path class="cls-3" d="M9.27,23.34A.43.43,0,0,0,8.83,23a.6.6,0,0,0-.55.67c0,.34.18.67.55.67a.47.47,0,0,0,.46-.44h.19a.64.64,0,0,1-.65.6.83.83,0,0,1,0-1.66.6.6,0,0,1,.64.54Z"/><path class="cls-3" d="M10.67,22.24h.19v.31h-.19v-.31Zm0,.61h.19v1.57h-.19Z"/><path class="cls-3" d="M12.13,23.33c0-.37.27-.53.63-.53s.59.09.59.51v.83c0,.08,0,.12.11.12h.06v.16h-.13c-.19,0-.22-.11-.22-.27h0a.59.59,0,0,1-.57.31c-.29,0-.53-.14-.53-.45s.43-.46.85-.51c.16,0,.24,0,.24-.21S13,23,12.74,23s-.42.11-.42.37Zm1,.23h0c0,.05-.11.06-.17.07-.32.06-.73.06-.73.36a.33.33,0,0,0,.35.31.5.5,0,0,0,.55-.49Z"/><rect class="cls-4" x="14.65" y="22.24" width="0.19" height="2.18"/><path class="cls-3" d="M18.84,22.2a1.13,1.13,0,1,1-1,1.13,1,1,0,0,1,1-1.13Zm0,2.09h0c.58,0,.82-.48.82-1a.83.83,0,1,0-1.64,0A.85.85,0,0,0,18.84,24.29Z"/><path class="cls-3" d="M21.68,23h-.31v1.41h-.19V23h-.27v-.16h.27v-.14c0-.27.07-.47.38-.47l.16,0v.16h-.14c-.21,0-.21.13-.21.3v.14h.31Z"/><path class="cls-3" d="M23.33,23H23v1.41h-.19V23h-.27v-.16h.27v-.14c0-.27.07-.47.38-.47l.16,0v.16h-.14c-.21,0-.2.13-.21.3v.14h.31Z"/><path class="cls-3" d="M24.55,23.69a.55.55,0,0,0,.52.61.47.47,0,0,0,.49-.4h.19a.63.63,0,0,1-.68.56c-.51,0-.72-.38-.72-.83a.74.74,0,0,1,.72-.83c.5,0,.7.44.69.89Zm1-.17h0a.53.53,0,0,0-.5-.56.56.56,0,0,0-.52.56Z"/><path class="cls-3" d="M26.93,22.85h.18v.37h0a.56.56,0,0,1,.59-.39V23a.54.54,0,0,0-.58.56v.84h-.2Z"/><path class="cls-3" d="M29.76,23.31a.37.37,0,0,0-.42-.35c-.17,0-.37.07-.37.28s.2.23.33.26l.25.06c.23,0,.46.16.46.43s-.35.47-.64.47a.57.57,0,0,1-.65-.55h.2a.4.4,0,0,0,.46.39c.18,0,.43-.08.43-.29s-.17-.25-.34-.29l-.25,0c-.25-.07-.44-.16-.44-.43s.31-.44.59-.44a.52.52,0,0,1,.58.51Z"/><path class="cls-3" d="M36.53,22.24h1a.63.63,0,1,1,0,1.25h-.76v.93h-.21V22.24Zm.21,1.07h.71c.29,0,.49-.14.49-.44a.43.43,0,0,0-.49-.45h-.71Z"/><path class="cls-3" d="M39.33,22.85h.18v.37h0a.56.56,0,0,1,.59-.39V23a.54.54,0,0,0-.58.56v.84h-.2Z"/><path class="cls-3" d="M41.22,22.24h.19v.31h-.19v-.31Zm0,.61h.19v1.57h-.19Z"/><path class="cls-3" d="M44.11,23.63a.75.75,0,1,1-.75-.83.76.76,0,0,1,.75.83Zm-1.3,0h0c0,.34.18.67.55.67s.55-.33.55-.67a.56.56,0,1,0-1.1,0Z"/><path class="cls-3" d="M45.31,22.85h.18v.37h0a.57.57,0,0,1,.6-.39V23a.54.54,0,0,0-.59.56v.84h-.19Z"/><path class="cls-3" d="M47.19,22.24h.19v.31h-.19v-.31Zm0,.61h.19v1.57h-.19Z"/><path class="cls-3" d="M49,22.85h.33V23H49v1.06c0,.12,0,.2.16.21h.17v.16h-.18c-.25,0-.34-.09-.34-.36V23h-.27v-.16h.27v-.47H49Z"/><path class="cls-3" d="M50.31,22.85h.21L51,24.19l.48-1.34h.19L51,24.66c-.11.26-.17.34-.42.34h-.14v-.17l.13,0c.17,0,.21-.1.27-.25l.07-.18Z"/><path class="cls-3" d="M54.72,23.7c0,.45.31.59.71.59.23,0,.58-.13.58-.44s-.25-.35-.45-.4l-.49-.11c-.25-.07-.49-.19-.49-.53s.14-.61.75-.61c.43,0,.81.23.81.68h-.21a.53.53,0,0,0-.59-.5c-.29,0-.55.11-.55.43s.15.29.33.33l.53.13c.31.08.57.22.57.57,0,.15-.07.62-.84.62-.51,0-.89-.23-.87-.76Z"/><path class="cls-3" d="M57.54,23.69a.55.55,0,0,0,.52.61.47.47,0,0,0,.49-.4h.2a.64.64,0,0,1-.69.56c-.5,0-.71-.38-.71-.83a.74.74,0,0,1,.71-.83c.5,0,.71.44.69.89Zm1-.17h0a.53.53,0,0,0-.5-.56.56.56,0,0,0-.52.56Z"/><path class="cls-3" d="M59.93,22.85h.17v.37h0a.57.57,0,0,1,.6-.39V23a.54.54,0,0,0-.59.56v.84h-.19Z"/><polygon class="cls-3" points="61.63 22.85 61.84 22.85 62.34 24.23 62.34 24.23 62.83 22.85 63.03 22.85 62.44 24.42 62.24 24.42 61.63 22.85"/><path class="cls-3" d="M64.14,22.24h.19v.31h-.19v-.31Zm0,.61h.19v1.57h-.19Z"/><path class="cls-3" d="M66.73,23.34a.44.44,0,0,0-.45-.38.6.6,0,0,0-.55.67c0,.34.18.67.55.67a.46.46,0,0,0,.46-.44h.19a.64.64,0,0,1-.65.6.84.84,0,0,1,0-1.66.59.59,0,0,1,.64.54Z"/><path class="cls-3" d="M68.23,23.69a.55.55,0,0,0,.52.61.47.47,0,0,0,.49-.4h.2a.64.64,0,0,1-.69.56c-.5,0-.71-.38-.71-.83a.74.74,0,0,1,.71-.83c.51,0,.71.44.7.89Zm1-.17h0a.53.53,0,0,0-.5-.56.57.57,0,0,0-.52.56Z"/><rect class="cls-4" x="33.11" y="22.1" width="0.06" height="2.58"/></g></g></svg>